<?xml version="1.0" encoding="iso-8859-1"?>
<!-- Generator: Adobe Illustrator 19.0.0, SVG Export Plug-In . SVG Version: 6.00 Build 0)  -->
<svg version="1.1" id="Capa_1" xmlns="http://www.w3.org/2000/svg" xmlns:xlink="http://www.w3.org/1999/xlink" x="0px" y="0px" fill="#03a9f4"
	 viewBox="0 0 512.156 512.156" style="enable-background:new 0 0 512.156 512.156;" xml:space="preserve">
<g>
	<g>
		<path d="M505.879,199.82C479.583,83.027,375.847,0.061,256.13,0.075C151.047,0.025,56.606,64.198,17.955,161.915
			S4.294,371.045,80.979,442.892s189.487,89.534,284.482,44.606c0.069-0.03,0.143-0.015,0.211-0.047
			c0.065-0.031,0.102-0.091,0.166-0.123C474.008,436.032,532.175,316.612,505.879,199.82z M386.773,56.171l-48.317,16.913
			c-0.98,0.347-1.89,0.869-2.683,1.542c-10.169,8.083-19.583,17.072-28.125,26.858c-5.616,4.013-11.744,7.256-18.221,9.642
			c-28.904,2.033-64.171,5.475-71.346,10.45c-8.783,6.117-10.25,25.058-9.938,39.875c0.029,1.307,0.358,2.59,0.963,3.75
			l23.483,45.167c3.882,7.249,12.852,10.058,20.175,6.317c1.975-0.992,3.975-2.108,5.987-3.233c1.642-0.917,3.292-1.842,5.275-2.859
			c2.954-1.483,6.625-3.292,8.429-2.775c0.486,0.15,0.953,0.357,1.392,0.617c-0.614,1.496-1.563,2.83-2.775,3.9
			c-6.075,6.633-12.067,13.333-18.075,20.25l-20.104,23.225c-0.683,0.783-1.363,1.567-2.346,2.783
			c-6.008,8.334-8.559,18.669-7.121,28.842l0.838,5.717c0.84,5.897-0.696,11.886-4.271,16.65l-16.825,22.783
			c-1.45,1.888-2.701,3.921-3.733,6.067l-17.729,36.892H167.68c4.006-4.061,5.609-9.915,4.229-15.45l-16.263-65.7h0.012
			c-0.115-0.662-0.283-1.314-0.5-1.95l-11.746-31.575c-0.475-1.288-0.715-2.652-0.708-4.025v-1.533
			c0.046-10.965-6.164-20.996-16-25.842l-0.75-0.333c-4.915-2.552-10.48-3.582-15.983-2.958l-23.054,2.567
			c-3.723,0.419-7.407-1.062-9.805-3.941l-14.475-17.117c-1.785-2.125-2.767-4.809-2.775-7.583v-15.108
			c-0.04-3.077,1.148-6.043,3.3-8.242l18.658-18.842c1.635-1.677,3.07-3.536,4.279-5.542l6.025-10.233
			c2.013-3.448,5.716-5.555,9.708-5.525h24.7c3.258-0.017,6.358,1.404,8.471,3.883c5.404,5.926,13.046,9.315,21.067,9.342h9.083
			c3.76,0,7.076-2.461,8.166-6.059l7.892-26.025c0.953-3.154,0.008-6.575-2.429-8.792c-4.925-4.458-9.024-9.75-12.108-15.633
			c-5.567-13.467-29.879-22.175-36.542-23.225c-4.36-2.484-8.447-5.42-12.191-8.76C197.916,4.356,304.667,2.303,386.773,56.171z
			 M124.739,455.675C57.586,411.479,17.17,336.467,17.197,256.075c-0.013-71.26,31.833-138.793,86.82-184.118
			c15.51,12.99,20.406,14.67,23.701,15.034c8.736,2.109,16.741,6.537,23.171,12.817c3.099,6.65,7.328,12.712,12.5,17.917
			l-4.563,15.042h-2.754c-3.168-0.011-6.19-1.332-8.35-3.65c-5.351-6.098-13.075-9.588-21.187-9.575h-24.7
			c-10.027,0.011-19.306,5.306-24.417,13.933l-5.917,10.058c-0.51,0.842-1.11,1.627-1.787,2.342l-18.667,18.85
			c-5.333,5.391-8.302,12.683-8.25,20.267V200.1c0.016,6.788,2.412,13.355,6.771,18.558l14.517,17.159
			c6.086,7.227,15.381,10.935,24.771,9.883l23-2.558c2.287-0.256,4.598,0.204,6.613,1.317l0.837,0.383
			c3.928,2.003,6.382,6.058,6.333,10.467v1.533c-0.007,3.434,0.605,6.842,1.808,10.058l11.504,30.908
			c0.037,0.175,0.071,0.333,0.096,0.425l16.204,65.592l-1.621,1.567c-4.7,5.111-5.799,12.576-2.771,18.825
			c2.598,5.136,7.86,8.379,13.617,8.392h17.229c6.208,0.007,11.878-3.525,14.608-9.1l18.496-37.45c0.562-1.15,1.24-2.239,2.025-3.25
			l16.85-22.825c6.267-8.363,8.956-18.872,7.475-29.217l-0.838-5.733c-0.818-5.629,0.521-11.359,3.75-16.042l1.675-1.958
			c0.663-0.758,1.325-1.517,1.838-2.142l18.308-21.133c5.896-6.775,11.799-13.386,17.708-19.833
			c5.362-4.622,7.973-11.675,6.913-18.674c-1.555-6.588-6.526-11.834-13.021-13.742c-7.455-1.548-15.219-0.087-21.6,4.067
			c-1.829,0.942-3.658,1.958-5.475,2.975c-1.237,0.691-2.467,1.383-3.683,2.033l-21.55-41.45c-0.311-7.96,0.678-15.917,2.929-23.558
			c21.084-3.97,42.416-6.482,63.846-7.517c0.877-0.064,1.74-0.261,2.558-0.583c10.45-4.15,23.708-10.45,27.479-16.8
			c7.357-7.859,15.239-15.209,23.592-22l58.084-20.329c41.591,32.674,71.19,78.202,84.177,129.473l-3.103-1.628
			c-5.785-3.063-12.384-4.237-18.871-3.358l-44.012,5.792c-8.199,0.943-14.378,7.897-14.35,16.15v7.85h-8.875
			c-5.659,0.034-10.914,2.941-13.95,7.717l-2.846,4.483c-7.306,11.628-9.137,25.878-5.008,38.975l6.754,21.742l-5.979,2.067
			c-4.361,1.54-7.866,4.856-9.646,9.125c-1.736,4.206-1.612,8.949,0.341,13.058l19.808,42.025l-12.571,0.15l-23.829-19.008
			c-4.236-3.213-9.747-4.221-14.846-2.717l-35.154,10.6c-5.339,1.68-9.447,5.975-10.889,11.383
			c-1.441,5.408-0.015,11.178,3.78,15.292l4.888,5.233c1.79,1.826,3.971,3.222,6.379,4.083l14.342,4.583v15.867
			c0.032,2.402,0.542,4.773,1.5,6.975l28.885,61.241C276.774,507.322,191.893,499.871,124.739,455.675z M365.997,468.145
			l-28.717-60.861v-15.867c0.012-6.95-4.362-13.152-10.912-15.475l-14.588-5.025l-3.854-4.133l33.337-10.342l23.575,18.808
			c2.936,2.34,6.579,3.615,10.333,3.617h13.992c5.6,0.029,10.829-2.798,13.871-7.5c3.015-4.665,3.43-10.549,1.1-15.592L384.16,313.4
			l5.862-2.025c8.207-2.923,12.661-11.787,10.108-20.117l-7.013-22.575c-2.626-8.321-1.467-17.375,3.171-24.767l2.35-4.225h9.554
			c8.999,0.037,16.33-7.217,16.388-16.217v-7.992l43.617-5.742c2.978-0.406,6.008,0.149,8.65,1.583l3.404,1.784
			c3.578,1.84,7.47,2.989,11.474,3.385C509.026,318.797,458.191,420.547,365.997,468.145z"/>
	</g>
</g>
<g>
</g>
<g>
</g>
<g>
</g>
<g>
</g>
<g>
</g>
<g>
</g>
<g>
</g>
<g>
</g>
<g>
</g>
<g>
</g>
<g>
</g>
<g>
</g>
<g>
</g>
<g>
</g>
<g>
</g>
</svg>
