<svg height="420pt" viewBox="-2 0 420 420.47307" width="420pt" xmlns="http://www.w3.org/2000/svg"><path d="m3.199219 417.578125c3.925781 3.863281 10.226562 3.859375 14.144531-.011719l115.222656-116.332031h22.785156l162.027344 104.949219c1.621094 1.042968 3.511719 1.589844 5.4375 1.582031 1.617188-.007813 3.203125-.429687 4.605469-1.230469 3.179687-1.773437 5.125-5.15625 5.058594-8.800781v-298.878906l81.175781-81.820313c3.910156-3.902344 3.914062-10.230468.015625-14.140625-3.976563-3.886719-10.335937-3.855469-14.269531.070313l-66.921875 67.464844v-47.695313c.070312-3.636719-1.875-7.015625-5.054688-8.785156-3.179687-1.769531-7.074219-1.636719-10.128906.339843l-161.945313 104.945313h-61.214843c-2.628907.039063-5.128907 1.132813-6.945313 3.03125-1.816406 1.902344-2.792968 4.453125-2.710937 7.078125v161.78125c-.082031 2.625.894531 5.175781 2.710937 7.078125 1.816406 1.898437 4.316406 2.992187 6.945313 3.03125h10.289062l-101.296875 102.257813c-1.863281 1.875-2.90625 4.414062-2.890625 7.058593.011719 2.644531 1.078125 5.175781 2.960938 7.027344zm309.28125-38.242187-143-92.613282v-23.308594l143-144.355468zm0-288.699219-143 144.351562v-101.242187l143-92.609375zm-208 190.597656v-142h45v115.953125l-25.253907 26.046875zm0 0"/></svg>